<?xml version="1.0" encoding="UTF-8"?>
<svg id="Layer_2" data-name="Layer 2" xmlns="http://www.w3.org/2000/svg" viewBox="0 0 62.02 14.17">
  <g id="Camada_1" data-name="Camada 1">
    <g>
      <g>
        <path d="M19.45,2.46h1.66l1.84,2.96,1.84-2.96h1.66v7h-1.53v-4.57l-1.97,2.99h-.04l-1.95-2.96v4.54h-1.51V2.46Z"/>
        <path d="M27.64,7.91v-.02c0-1.17.89-1.71,2.16-1.71.54,0,.93.09,1.31.22v-.09c0-.63-.39-.98-1.15-.98-.58,0-.99.11-1.48.29l-.38-1.16c.59-.26,1.17-.43,2.08-.43.83,0,1.43.22,1.81.6.4.4.58.99.58,1.71v3.11h-1.47v-.58c-.37.41-.88.68-1.62.68-1.01,0-1.84-.58-1.84-1.64ZM31.13,7.56v-.27c-.26-.12-.6-.2-.97-.2-.65,0-1.05.26-1.05.74v.02c0,.41.34.65.83.65.71,0,1.19-.39,1.19-.94Z"/>
        <path d="M33.88,4.1h1.52v.77c.37-.5.88-.87,1.67-.87,1.25,0,2.44.98,2.44,2.77v.02c0,1.79-1.17,2.77-2.44,2.77-.81,0-1.31-.37-1.67-.8v2.3h-1.52v-6.96ZM37.99,6.79v-.02c0-.89-.6-1.48-1.31-1.48s-1.3.59-1.3,1.48v.02c0,.89.59,1.48,1.3,1.48s1.31-.58,1.31-1.48Z"/>
        <path d="M40.63,4.1h1.52v.77c.37-.5.88-.87,1.67-.87,1.25,0,2.44.98,2.44,2.77v.02c0,1.79-1.17,2.77-2.44,2.77-.81,0-1.31-.37-1.67-.8v2.3h-1.52v-6.96ZM44.74,6.79v-.02c0-.89-.6-1.48-1.31-1.48s-1.3.59-1.3,1.48v.02c0,.89.59,1.48,1.3,1.48s1.31-.58,1.31-1.48Z"/>
        <path d="M47.41,2.16h1.6v1.35h-1.6v-1.35ZM47.45,4.1h1.52v5.36h-1.52v-5.36Z"/>
        <path d="M50.4,4.1h1.52v.76c.35-.45.8-.86,1.57-.86,1.15,0,1.82.76,1.82,1.99v3.47h-1.52v-2.99c0-.72-.34-1.09-.92-1.09s-.95.37-.95,1.09v2.99h-1.52v-5.36Z"/>
        <path d="M56.66,10.51l.52-1.14c.55.31,1.1.49,1.81.49,1.04,0,1.53-.5,1.53-1.46v-.26c-.45.54-.94.87-1.75.87-1.25,0-2.38-.91-2.38-2.5v-.02c0-1.6,1.15-2.5,2.38-2.5.83,0,1.32.35,1.73.8v-.7h1.52v4.15c0,.96-.23,1.66-.68,2.11-.5.5-1.27.72-2.31.72-.87,0-1.69-.2-2.37-.56ZM60.52,6.52v-.02c0-.73-.57-1.24-1.31-1.24s-1.3.51-1.3,1.24v.02c0,.74.56,1.24,1.3,1.24s1.31-.51,1.31-1.24Z"/>
      </g>
      <path d="M14.17.45v2.71c0,.25-.2.45-.45.45s-.45-.2-.45-.45V.9h-2.26c-.25,0-.45-.2-.45-.45s.2-.45.45-.45h2.71c.25,0,.45.2.45.45ZM13.72,10.55c-.25,0-.45.2-.45.45v2.26h-2.26c-.25,0-.45.2-.45.45s.2.45.45.45h2.71c.25,0,.45-.2.45-.45v-2.71c0-.25-.2-.45-.45-.45ZM3.17,13.27H.9v-2.26c0-.25-.2-.45-.45-.45s-.45.2-.45.45v2.71c0,.25.2.45.45.45h2.71c.25,0,.45-.2.45-.45s-.2-.45-.45-.45ZM.45,3.62c.25,0,.45-.2.45-.45V.9h2.26c.25,0,.45-.2.45-.45s-.2-.45-.45-.45H.45c-.25,0-.45.2-.45.45v2.71c0,.25.2.45.45.45ZM7.09,12.36c-2.91,0-5.28-2.36-5.28-5.28S4.17,1.81,7.09,1.81s5.28,2.36,5.28,5.28c0,2.91-2.36,5.27-5.28,5.28ZM11.46,7.09c0-2.41-1.96-4.37-4.37-4.37s-4.37,1.96-4.37,4.37,1.96,4.37,4.37,4.37c2.41,0,4.37-1.96,4.37-4.37ZM6.03,6.18c0-.42-.34-.75-.75-.75s-.75.34-.75.75.34.75.75.75.75-.34.75-.75ZM8.9,5.43c-.42,0-.75.34-.75.75s.34.75.75.75.75-.34.75-.75-.34-.75-.75-.75ZM8.59,8.56c-.32.28-.97.49-1.51.49s-1.19-.21-1.51-.49c-.19-.17-.47-.15-.64.04-.17.19-.15.47.04.64.56.49,1.46.72,2.11.72s1.55-.22,2.11-.72c.19-.17.21-.45.04-.64-.17-.19-.45-.21-.64-.04h0Z"/>
    </g>
  </g>
</svg>