<?xml version="1.0" encoding="UTF-8"?>
<svg id="Layer_2" data-name="Layer 2" xmlns="http://www.w3.org/2000/svg" xmlns:xlink="http://www.w3.org/1999/xlink" viewBox="0 0 153.07 87.89">
  <defs>
    <style>
      .cls-1 {
        stroke: #959899;
        stroke-width: .77px;
      }

      .cls-1, .cls-2 {
        fill: none;
      }

      .cls-1, .cls-2, .cls-3 {
        stroke-miterlimit: 10;
      }

      .cls-2 {
        stroke: #f9bc2a;
        stroke-width: .93px;
      }

      .cls-4 {
        fill: url(#Gradiente_sem_nome_17-2);
      }

      .cls-4, .cls-3, .cls-5, .cls-6 {
        fill-rule: evenodd;
      }

      .cls-4, .cls-5 {
        opacity: .98;
      }

      .cls-3 {
        stroke: #000;
        stroke-width: 1.03px;
      }

      .cls-5 {
        fill: url(#Gradiente_sem_nome_17);
      }

      .cls-7 {
        font-family: VisbyCF-Medium, 'Visby CF';
        font-size: 9.38px;
        font-weight: 500;
        letter-spacing: .01em;
      }
    </style>
    <linearGradient id="Gradiente_sem_nome_17" data-name="Gradiente sem nome 17" x1="1309.97" y1="2041.15" x2="1335.97" y2="2071.31" gradientTransform="translate(-2018.7013 1379.5647) rotate(-90)" gradientUnits="userSpaceOnUse">
      <stop offset="0" stop-color="#000" stop-opacity="0"/>
      <stop offset="1" stop-color="#fff" stop-opacity=".5"/>
    </linearGradient>
    <linearGradient id="Gradiente_sem_nome_17-2" data-name="Gradiente sem nome 17" x1="1310.9" y1="1963.32" x2="1336.96" y2="1993.54" gradientTransform="translate(2093.9557 1379.5647) rotate(-90) scale(1 -1)" xlink:href="#Gradiente_sem_nome_17"/>
  </defs>
  <g id="Camada_1" data-name="Camada 1">
    <g>
      <path class="cls-5" d="M71.18,86.73L29.79,10.17S15.7,16.16,0,29.8l71.18,56.93Z"/>
      <path class="cls-4" d="M81.89,85.79L122.61,9.9s14.76,5.32,30.46,18.96l-71.18,56.93Z"/>
      <path class="cls-1" d="M70.82,86.07L18.03,16.48s51.95-36.39,118.76.28l-55,69.45"/>
      <path class="cls-2" d="M81.79,86.2l38.48-37.92c-42.64-19.86-85.84.69-85.84.69l36.39,37.22"/>
      <text class="cls-7" transform="translate(143.4 84.23) rotate(-90)"><tspan x="0" y="0">até 1,3 m</tspan></text>
      <rect x="133.72" y="39.63" width="1.03" height="46.57"/>
      <polygon class="cls-3" points="134.23 85.76 136.15 85.24 134.23 87.17 132.31 85.24 134.23 85.76"/>
      <polygon class="cls-3" points="134.23 29.08 132.31 29.6 134.23 27.67 136.15 29.6 134.23 29.08"/>
      <path d="M131.04,22.51c-1.34-4.34-5.96-6.79-10.3-5.45l-.3-.98c2.37-.73,4.88-.49,7.07.67,2.19,1.16,3.8,3.1,4.52,5.47l-.98.3Z"/>
      <polygon class="cls-6" points="131.4 21.93 133.09 20.87 131.81 23.28 129.41 22 131.4 21.93"/>
      <path d="M11.68,15.6l-.98-.3c.73-2.37,2.33-4.31,4.52-5.47,2.19-1.16,4.7-1.4,7.07-.67l-.3.98c-2.1-.65-4.34-.44-6.28.59-1.95,1.03-3.38,2.76-4.02,4.86Z"/>
      <polygon class="cls-6" points="11.32 15.03 9.63 13.97 10.9 16.37 13.31 15.1 11.32 15.03"/>
    </g>
  </g>
</svg>